<?xml version="1.0" standalone="no"?>
<!DOCTYPE svg PUBLIC "-//W3C//DTD SVG 20010904//EN"
 "http://www.w3.org/TR/2001/REC-SVG-20010904/DTD/svg10.dtd">
<svg version="1.0" xmlns="http://www.w3.org/2000/svg"
 width="250" height="57" viewBox="0 0 300.000000 127.000000"
 preserveAspectRatio="xMidYMid meet">
<metadata>
Created by potrace 1.10, written by Peter Selinger 2001-2011
</metadata>
<g transform="translate(0.000000,127.000000) scale(0.100000,-0.100000)"
fill="#38761d" stroke="none">
<path d="M1085 1230 c-66 -31 -113 -80 -139 -143 -14 -36 -27 -54 -31 -47 -4
7 -30 22 -57 35 -46 21 -53 22 -100 10 -68 -18 -127 -59 -144 -100 -8 -19 -14
-60 -14 -91 0 -47 5 -63 32 -100 17 -24 39 -46 49 -49 16 -6 17 -9 3 -48 -38
-108 40 -222 170 -246 41 -8 51 -6 89 19 59 38 86 66 92 95 3 14 7 36 10 50
11 51 -7 106 -46 147 -33 35 -36 43 -27 63 l10 23 117 -55 c181 -87 236 -109
381 -152 163 -49 223 -53 296 -16 69 34 93 62 100 118 13 94 -51 157 -331 325
-77 46 -186 106 -242 133 -114 54 -152 60 -218 29z m154 -46 c31 -34 33 -40
27 -83 -11 -84 -35 -137 -79 -178 -51 -48 -97 -73 -123 -68 -75 15 -74 15 -69
38 7 28 -9 74 -36 103 -20 21 -20 21 1 77 15 41 34 67 64 92 92 75 157 81 215
19z m56 -25 c-4 -5 -4 -9 -1 -9 2 0 12 -3 22 -7 13 -5 15 -3 9 8 -5 8 -5 11 1
6 5 -5 8 -11 6 -14 -2 -3 57 -40 130 -82 167 -96 332 -208 378 -257 40 -43 27
-37 -50 21 -58 44 -150 106 -211 143 -31 19 -38 20 -48 8 -9 -10 -8 -15 3 -19
10 -4 13 -1 9 9 -4 10 0 12 10 8 9 -3 14 -11 11 -19 -6 -14 22 -28 37 -19 5 3
8 1 7 -4 -2 -5 52 -46 118 -90 67 -44 125 -86 129 -93 10 -16 -91 42 -170 96
-101 70 -115 73 -25 5 25 -19 47 -37 50 -41 3 -4 33 -20 67 -37 68 -35 76 -43
67 -66 -5 -12 -18 -15 -54 -13 -26 1 -46 4 -45 7 2 3 -21 15 -51 27 -67 26
-71 20 -6 -9 l47 -21 -30 -7 c-26 -7 -23 -8 20 -10 28 -1 59 -5 69 -9 19 -7
19 -8 1 -15 -10 -4 -39 -4 -64 -1 l-46 6 30 -15 c29 -14 28 -14 -47 -15 -57
-1 -89 4 -125 20 -26 11 -57 23 -68 25 -58 11 -81 17 -90 22 -5 4 -19 8 -29 9
-11 2 -24 7 -30 11 -6 5 -33 17 -59 26 -27 10 -46 21 -42 24 3 3 -26 20 -65
38 -38 18 -70 34 -70 36 0 2 18 4 40 4 22 1 40 -2 40 -7 0 -5 -8 -6 -17 -3
-15 5 -15 4 1 -6 15 -10 20 -9 27 1 7 11 9 11 9 -2 0 -17 20 -29 56 -34 26 -4
28 22 2 28 -16 5 -17 3 -7 -9 7 -9 8 -14 1 -14 -6 0 -17 9 -24 19 -8 11 -26
25 -41 32 -27 12 -36 29 -16 29 6 0 20 -5 32 -11 21 -10 21 -9 3 5 -18 15 -18
16 13 48 18 18 39 45 47 61 13 25 34 37 34 19 0 -4 15 -14 32 -21 18 -8 54
-28 80 -44 27 -17 51 -28 53 -25 3 3 -37 29 -90 59 -52 29 -95 60 -95 67 0 10
10 7 38 -9 20 -12 52 -30 70 -41 17 -10 49 -28 70 -40 74 -43 18 -2 -71 53
-75 45 -93 60 -95 82 -2 15 -1 27 2 27 3 0 46 -20 95 -45 123 -62 128 -56 7 8
-89 48 -136 87 -106 87 6 0 8 5 4 12 -4 7 -3 8 5 4 6 -4 9 -12 6 -17z m165
-62 c104 -57 338 -215 361 -243 20 -25 10 -19 -141 89 -69 50 -170 114 -225
144 -107 59 -113 63 -99 63 5 0 52 -24 104 -53z m-589 -55 c93 -60 118 -117
84 -198 -12 -29 -18 -35 -32 -28 -39 19 -112 8 -164 -25 -28 -17 -54 -31 -59
-31 -5 0 -25 19 -44 42 -30 35 -36 49 -36 89 0 86 29 126 114 161 58 24 86 22
137 -10z m55 -251 c65 -29 94 -76 94 -147 0 -73 -13 -99 -68 -141 -51 -39 -87
-42 -147 -13 -61 29 -98 72 -105 122 -12 87 36 162 121 186 49 14 59 14 105
-7z"/>
<path d="M1067 1123 c-43 -34 -57 -61 -57 -112 0 -46 27 -74 72 -74 23 0 40 9
68 40 99 106 28 231 -83 146z m96 3 c4 -10 1 -13 -9 -9 -8 3 -14 -1 -14 -11 0
-9 6 -13 14 -10 11 4 14 -1 12 -20 -1 -14 -6 -29 -9 -33 -4 -3 -2 -12 4 -20 8
-9 8 -13 1 -13 -6 0 -14 5 -17 10 -8 13 -55 13 -75 0 -8 -5 -11 -10 -6 -10 5
0 3 -6 -3 -14 -6 -7 -8 -22 -4 -32 6 -18 6 -18 -15 0 -14 12 -22 30 -21 50 0
30 1 30 11 9 6 -13 14 -23 18 -23 11 0 7 34 -5 42 -6 5 -5 12 2 19 10 10 17 9
33 -6 11 -10 20 -15 20 -10 0 4 -7 13 -17 20 -9 7 -13 17 -9 23 7 12 46 -20
46 -38 0 -5 4 -10 8 -10 5 0 9 7 9 15 0 8 -4 15 -9 15 -12 0 -10 38 2 45 6 4
8 11 5 16 -4 5 0 9 8 9 8 0 17 -7 20 -14z m-53 -16 c0 -17 -2 -19 -14 -8 -14
13 -12 28 5 28 5 0 9 -9 9 -20z m28 -109 c3 -8 -1 -12 -9 -9 -7 2 -15 10 -17
17 -3 8 1 12 9 9 7 -2 15 -10 17 -17z m-28 -22 c0 -10 -4 -19 -10 -19 -5 0
-10 5 -10 11 0 5 -4 7 -10 4 -11 -7 -12 -3 -4 19 8 20 34 9 34 -15z"/>
<path d="M1530 936 c0 -2 14 -14 30 -26 17 -12 30 -18 30 -13 0 5 -13 17 -30
26 -16 10 -30 16 -30 13z"/>
<path d="M1490 926 c0 -2 7 -7 16 -10 8 -3 12 -2 9 4 -6 10 -25 14 -25 6z"/>
<path d="M1220 856 c0 -2 9 -6 20 -9 11 -3 18 -1 14 4 -5 9 -34 13 -34 5z"/>
<path d="M1270 836 c0 -2 7 -7 16 -10 8 -3 12 -2 9 4 -6 10 -25 14 -25 6z"/>
<path d="M1500 837 c0 -3 15 -10 32 -16 18 -6 28 -7 23 -2 -12 10 -55 25 -55
18z"/>
<path d="M1287 799 c7 -7 15 -10 18 -7 3 3 -2 9 -12 12 -14 6 -15 5 -6 -5z"/>
<path d="M1515 800 c9 -15 45 -32 45 -22 0 5 -12 14 -26 20 -14 7 -23 8 -19 2z"/>
<path d="M1571 806 c8 -7 79 -35 79 -31 0 7 -58 35 -71 35 -7 0 -10 -2 -8 -4z"/>
<path d="M1368 793 c7 -3 16 -2 19 1 4 3 -2 6 -13 5 -11 0 -14 -3 -6 -6z"/>
<path d="M1570 775 c0 -2 14 -10 30 -19 17 -8 30 -11 30 -6 0 4 -13 13 -30 19
-16 5 -30 8 -30 6z"/>
<path d="M1740 754 c14 -16 25 -30 25 -31 0 -1 14 -5 30 -9 25 -6 28 -5 18 7
-6 8 -31 25 -55 38 l-43 24 25 -29z"/>
<path d="M1690 750 c19 -11 42 -19 50 -19 8 0 -5 8 -29 19 -55 25 -67 25 -21
0z"/>
<path d="M1504 716 c11 -9 27 -16 35 -15 14 0 14 1 1 6 -8 3 -24 10 -35 15
-20 9 -20 9 -1 -6z"/>
<path d="M1565 720 c28 -12 37 -12 30 0 -3 6 -16 10 -28 9 -21 0 -21 -1 -2 -9z"/>
<path d="M1489 695 c18 -8 36 -15 40 -15 13 1 -45 29 -59 29 -8 0 0 -6 19 -14z"/>
<path d="M1610 706 c0 -2 11 -6 25 -8 13 -3 22 -1 19 3 -5 9 -44 13 -44 5z"/>
<path d="M1553 685 c-9 -10 -6 -15 13 -24 32 -14 47 -14 38 0 -7 12 33 3 52
-12 6 -5 14 -6 17 -2 14 13 6 23 -17 23 -13 0 -39 6 -57 14 -28 11 -36 12 -46
1z m37 -15 c0 -5 -7 -7 -15 -4 -8 4 -15 8 -15 10 0 2 7 4 15 4 8 0 15 -4 15
-10z"/>
<path d="M742 983 c-57 -28 -70 -99 -27 -146 14 -15 31 -27 37 -27 6 0 -1 11
-16 25 -14 13 -26 29 -26 36 0 6 8 1 18 -11 16 -20 19 -21 25 -7 4 11 1 17 -9
17 -8 0 -12 5 -9 11 11 17 30 4 30 -22 0 -15 7 -25 18 -27 9 -2 17 2 17 8 0 6
-4 8 -10 5 -5 -3 -10 1 -10 10 0 11 5 15 15 11 9 -3 15 0 15 10 0 12 -6 15
-21 11 -14 -4 -19 -2 -15 8 7 20 -5 26 -21 10 -8 -8 -19 -15 -24 -15 -13 0
-11 17 3 26 8 5 6 10 -5 19 -14 10 -12 14 14 29 26 15 29 16 29 1 0 -9 -4 -14
-9 -10 -5 3 -12 1 -16 -5 -3 -5 -1 -10 4 -10 6 0 13 0 16 0 2 0 15 -11 28 -24
18 -17 31 -22 51 -19 23 5 27 9 21 30 -4 16 -2 22 5 18 5 -3 10 -23 10 -43 0
-28 -3 -33 -12 -24 -7 7 -18 12 -26 12 -12 0 -12 -3 -2 -15 10 -12 9 -15 -4
-15 -10 0 -14 -5 -11 -10 5 -8 11 -7 20 0 8 7 19 9 25 5 13 -8 32 42 25 66 -9
27 -73 79 -98 79 -12 0 -37 -8 -55 -17z m75 -21 c13 10 15 9 12 -6 -4 -20 -35
-30 -45 -15 -3 5 -2 14 2 21 6 9 9 9 12 0 3 -10 7 -10 19 0z m33 -42 c0 -5 -9
-10 -21 -10 -11 0 -17 5 -14 10 3 6 13 10 21 10 8 0 14 -4 14 -10z"/>
<path d="M823 726 c-60 -27 -74 -106 -26 -150 41 -38 77 -42 118 -15 54 37 61
100 18 141 -36 34 -70 41 -110 24z m27 -58 c0 -15 -15 -8 -28 12 -7 12 -10 26
-6 32 6 10 33 -25 34 -44z m14 36 c3 -8 10 -12 16 -9 5 3 10 0 10 -9 0 -8 -6
-16 -12 -19 -10 -3 -10 -7 0 -19 10 -13 9 -16 -6 -20 -15 -4 -17 0 -14 22 2
15 -1 37 -7 49 -7 11 -8 21 -2 21 5 0 12 -7 15 -16z m56 -39 c-10 -12 -10 -15
1 -15 9 -1 6 -7 -8 -19 -16 -14 -19 -21 -10 -30 8 -8 7 -11 -7 -11 -9 0 -15
-4 -11 -9 3 -5 1 -12 -4 -15 -5 -4 -12 -2 -16 4 -4 6 -11 7 -17 4 -5 -4 -8 1
-6 10 1 10 5 16 8 14 11 -6 52 41 45 51 -9 15 3 31 22 31 13 0 13 -3 3 -15z
m-85 -11 c17 -13 18 -16 5 -24 -22 -14 -33 -12 -26 5 3 8 1 15 -4 15 -6 0 -10
5 -10 10 0 14 12 12 35 -6z m-14 -41 c16 4 18 3 9 -8 -7 -8 -9 -19 -5 -25 11
-17 -3 -11 -24 11 -12 13 -17 28 -13 38 6 14 7 14 10 -2 3 -13 10 -17 23 -14z
m119 -4 c0 -18 -2 -20 -15 -9 -13 11 -13 15 -3 21 18 12 18 12 18 -12z"/>
<path d="M956 429 c-60 -9 -111 -49 -144 -110 -20 -37 -23 -55 -20 -111 3 -55
9 -75 34 -110 42 -60 98 -89 173 -89 62 -1 103 15 135 50 18 20 18 23 4 38
-15 14 -19 14 -43 -5 -60 -47 -137 -32 -168 34 -24 49 -22 137 4 190 34 71 89
77 167 17 18 -14 34 -23 36 -22 1 2 0 30 -2 61 -3 52 -6 56 -21 46 -13 -8 -29
-7 -62 4 -30 10 -59 12 -93 7z m84 -32 c0 -1 -19 -3 -42 -3 -32 -1 -47 -8 -65
-28 -13 -15 -23 -23 -23 -19 -1 19 -20 -24 -20 -44 0 -12 -5 -23 -12 -25 -8
-3 -9 -12 0 -35 11 -33 8 -43 -16 -43 -12 0 -12 3 -2 15 17 20 -6 48 -32 41
-12 -3 -18 0 -15 7 3 7 10 11 16 9 7 -1 10 2 6 7 -3 6 -3 22 1 36 5 20 9 23
15 13 6 -9 9 -6 10 12 0 14 3 19 6 13 2 -7 9 -13 14 -13 4 0 5 8 2 17 -5 12
-2 15 10 10 12 -4 17 -1 17 12 0 10 6 18 13 19 6 1 28 5 47 10 28 7 70 1 70
-11z m41 -15 c-7 -2 -18 1 -23 6 -8 8 -4 9 13 5 13 -4 18 -8 10 -11z m-221
-154 c0 -5 -9 -6 -20 -3 -18 6 -19 4 -10 -20 5 -14 9 -29 9 -33 -3 -19 2 -33
10 -28 5 3 11 -1 15 -9 3 -8 11 -15 18 -15 9 0 8 3 -2 10 -8 5 -10 10 -5 10 6
0 4 4 -4 9 -19 12 -23 39 -5 37 18 -3 31 -16 15 -16 -8 0 -5 -10 8 -26 24 -30
27 -46 8 -42 -7 2 -12 -1 -12 -7 0 -5 9 -10 20 -10 11 0 35 -11 53 -24 23 -16
42 -22 63 -19 32 5 40 -7 9 -15 -29 -8 -101 11 -137 36 -70 47 -109 203 -45
179 6 -2 12 -8 12 -14z"/>
<path d="M862 299 c-7 -11 -11 -23 -9 -25 7 -7 29 24 25 36 -2 6 -9 1 -16 -11z"/>
<path d="M66 421 c-3 -4 0 -26 5 -49 10 -47 6 -304 -6 -339 -7 -22 -5 -23 63
-23 l71 0 -6 70 -6 70 62 0 c80 0 113 18 141 75 25 52 23 96 -6 140 -31 47
-68 59 -196 61 -65 2 -120 -1 -122 -5z m212 -24 c56 -11 108 -56 98 -83 -3 -7
-1 -16 4 -19 6 -4 6 -15 -2 -28 -6 -12 -11 -23 -10 -24 1 -2 2 -7 2 -13 0 -14
-28 -12 -33 3 -2 6 -8 9 -12 4 -5 -4 0 -13 10 -21 13 -9 15 -15 6 -20 -6 -4
-19 -2 -28 6 -15 11 -16 11 -10 -4 3 -10 2 -20 -3 -23 -6 -4 -10 -1 -10 6 0 9
-3 9 -15 -1 -8 -6 -22 -10 -32 -7 -15 4 -14 5 4 6 27 1 63 58 63 100 0 44 -24
98 -48 105 -11 4 -37 5 -59 4 l-38 -3 -1 -69 c-1 -48 -5 -71 -14 -74 -7 -3
-10 0 -6 6 3 5 -1 13 -10 16 -23 9 -31 7 -14 -4 8 -5 11 -12 8 -15 -16 -17
-26 10 -25 65 1 33 -2 62 -8 64 -6 2 -5 9 3 17 10 11 16 11 33 1 12 -8 18 -9
15 -4 -12 20 55 25 132 9z m1 -71 c13 -33 13 -44 0 -80 -13 -37 -17 -41 -51
-44 l-38 -3 0 86 0 86 37 -3 c33 -3 39 -7 52 -42z m-125 -107 c-3 -5 0 -9 5
-9 6 0 11 -8 11 -17 -1 -15 -3 -15 -20 5 -17 20 -20 21 -34 6 -15 -14 -16 -14
-16 6 0 16 4 20 15 16 8 -3 15 -1 15 4 0 5 7 7 15 4 8 -4 12 -10 9 -15z m16
-68 c-1 -21 -29 -71 -30 -51 0 9 -3 11 -8 5 -4 -5 -16 -12 -26 -13 -16 -3 -18
-1 -8 11 6 7 8 17 4 22 -4 4 5 5 19 1 19 -4 29 -1 33 9 3 8 2 14 -2 14 -4 -1
-17 2 -29 6 -28 9 -31 29 -3 22 11 -3 20 0 20 5 0 6 6 5 15 -2 8 -7 15 -20 15
-29z m-36 -10 c4 -5 -3 -7 -14 -4 -23 6 -26 13 -6 13 8 0 17 -4 20 -9z m10
-64 c4 4 11 1 16 -7 14 -21 12 -36 -2 -22 -7 7 -17 8 -28 2 -24 -13 -52 17
-30 30 8 5 19 5 26 0 6 -6 14 -7 18 -3z"/>
<path d="M330 340 c-12 -8 -10 -10 8 -10 13 0 20 4 17 10 -7 12 -6 12 -25 0z"/>
<path d="M135 310 c-3 -5 -1 -10 4 -10 6 0 11 5 11 10 0 6 -2 10 -4 10 -3 0
-8 -4 -11 -10z"/>
<path d="M320 308 c0 -23 15 -31 29 -14 8 10 9 16 1 21 -5 3 -10 0 -10 -7 0
-9 -3 -9 -10 2 -8 13 -10 13 -10 -2z"/>
<path d="M128 283 c7 -3 16 -2 19 1 4 3 -2 6 -13 5 -11 0 -14 -3 -6 -6z"/>
<path d="M330 261 c0 -5 7 -12 16 -15 14 -5 15 -4 4 9 -14 17 -20 19 -20 6z"/>
<path d="M535 236 c0 -105 -2 -198 -5 -206 -4 -12 8 -16 69 -18 l73 -3 -8 28
c-12 36 -12 330 0 366 l8 28 -68 -2 -69 -2 0 -191z m99 153 c-3 -6 -5 -64 -5
-129 1 -75 -3 -120 -9 -120 -5 0 -10 6 -10 13 0 8 -3 8 -9 -2 -5 -8 -7 -19 -5
-26 3 -6 -2 -12 -10 -12 -16 0 -32 34 -22 45 4 3 16 7 28 9 29 5 34 11 20 25
-8 8 -9 15 0 25 8 11 7 12 -6 7 -10 -4 -16 -1 -16 7 0 7 -3 9 -6 6 -4 -4 1
-18 10 -32 16 -24 16 -25 -4 -25 -12 0 -20 7 -21 18 -3 61 -6 198 -3 203 1 3
19 3 38 1 20 -2 33 -8 30 -13z m-15 -275 c-9 -11 -8 -14 2 -15 8 0 5 -4 -6 -8
-25 -11 -31 -6 -16 13 7 8 10 20 6 25 -3 7 0 8 10 5 12 -5 13 -9 4 -20z m-19
-40 c5 -1 15 -2 20 -3 6 0 10 -7 10 -15 0 -17 -33 -27 -51 -15 -11 7 -10 9 3
9 9 0 19 4 22 9 3 4 -6 6 -19 3 -27 -5 -28 -3 -19 23 5 13 8 14 15 3 5 -7 13
-14 19 -14z"/>
<path d="M600 359 c0 -5 5 -7 10 -4 6 3 10 8 10 11 0 2 -4 4 -10 4 -5 0 -10
-5 -10 -11z"/>
<path d="M583 291 c4 -28 12 -34 14 -11 1 11 -2 22 -8 25 -5 4 -8 -3 -6 -14z"/>
<path d="M1278 401 c10 -36 9 -330 -2 -363 l-8 -28 70 0 69 0 -5 90 c-3 60 -1
90 6 90 12 0 72 -100 87 -145 10 -30 10 -30 95 -33 l85 -3 -32 33 c-31 33 -93
130 -133 209 l-22 42 72 69 72 69 -52 -3 c-50 -3 -52 -4 -100 -69 -27 -36 -57
-72 -66 -80 -16 -13 -17 -9 -12 66 l6 80 -69 1 -69 1 8 -26z m94 -11 c6 -19
-13 -50 -30 -50 -11 0 -22 -5 -24 -11 -2 -6 -4 7 -5 30 -2 39 -1 41 28 38 16
-1 30 -4 31 -7z m173 -10 c-3 -5 -11 -10 -16 -10 -6 0 -7 5 -4 10 3 6 11 10
16 10 6 0 7 -4 4 -10z m-175 -74 c0 -8 -6 -16 -14 -19 -10 -4 -12 0 -9 14 6
22 23 26 23 5z m-37 -40 c-3 -6 0 -6 8 2 18 17 32 15 25 -4 -3 -8 -2 -12 4 -9
6 3 10 1 10 -5 0 -7 7 -10 15 -6 19 7 19 -5 0 -30 -8 -10 -15 -28 -15 -38 0
-11 -7 -28 -17 -38 -18 -20 -43 -24 -43 -7 0 6 7 9 15 6 17 -7 30 9 15 18 -5
3 -8 16 -6 28 3 12 5 25 5 30 1 4 6 7 12 7 5 0 7 -4 4 -10 -3 -5 -1 -10 4 -10
13 0 14 10 2 29 -8 12 -12 12 -25 2 -9 -7 -13 -17 -10 -22 3 -5 -1 -9 -8 -9
-9 0 -14 16 -15 51 -1 42 1 48 13 38 7 -6 11 -16 7 -23z m141 19 c-6 -16 -24
-21 -24 -7 0 11 11 22 21 22 5 0 6 -7 3 -15z m16 -54 c0 -9 6 -23 13 -30 10
-11 9 -13 -5 -8 -10 4 -18 3 -18 -2 0 -4 -7 -8 -15 -8 -8 0 -15 7 -15 14 0 8
5 11 10 8 6 -3 10 -4 10 -1 0 2 3 11 6 19 4 11 -2 16 -17 19 -12 2 -24 9 -26
15 -4 10 3 10 26 2 18 -7 31 -18 31 -28z m-46 -16 c-4 -8 -9 -15 -13 -15 -4 0
-8 7 -8 15 0 8 6 15 13 15 8 0 11 -6 8 -15z m-111 -45 c-3 -11 -9 -20 -14 -20
-4 0 -7 9 -6 20 1 11 7 20 13 20 7 0 10 -8 7 -20z m193 -2 c5 -8 2 -9 -9 -5
-11 4 -17 1 -17 -9 0 -8 4 -12 10 -9 6 3 7 -1 4 -9 -4 -10 -1 -16 10 -16 10 0
13 6 10 15 -11 27 5 16 21 -15 9 -17 13 -36 9 -42 -5 -8 -2 -9 9 -5 10 3 17 5
17 3 0 -3 3 -13 7 -23 3 -10 3 -15 -1 -11 -4 3 -20 3 -35 -2 -34 -9 -58 17
-35 38 12 11 14 9 15 -10 0 -21 1 -22 8 -3 10 26 2 62 -10 43 -5 -7 -9 -9 -9
-4 0 6 -7 1 -15 -10 -11 -14 -15 -15 -14 -4 3 31 -1 51 -10 46 -5 -3 -11 3
-14 14 -7 27 34 42 49 18z m-146 -53 c0 -8 -5 -15 -11 -15 -14 0 -39 -26 -39
-40 0 -6 5 -8 13 -4 8 5 8 3 -2 -9 -19 -24 -32 -11 -29 29 2 27 6 33 19 29 9
-3 22 1 29 10 16 19 20 19 20 0z m-6 -77 c-10 -16 -22 -7 -17 13 4 15 8 17 14
8 4 -7 5 -17 3 -21z"/>
<path d="M1330 366 c0 -2 7 -7 16 -10 8 -3 12 -2 9 4 -6 10 -25 14 -25 6z"/>
<path d="M1797 398 c9 -35 11 -316 3 -358 l-5 -25 115 -3 c63 -2 129 0 147 3
33 6 37 12 48 80 l7 40 -30 -28 c-33 -32 -81 -46 -127 -37 l-30 5 0 160 c0 88
2 167 5 175 4 12 -8 16 -68 18 l-74 3 9 -33z m98 -155 c1 -89 -2 -160 -6 -157
-4 2 -12 -3 -19 -11 -11 -13 -10 -14 3 -10 8 4 18 1 22 -4 3 -6 11 -9 16 -6 5
4 9 2 9 -4 0 -17 -16 -20 -51 -10 -32 10 -34 14 -35 55 -1 24 3 44 8 44 5 0 7
-3 5 -7 -2 -5 4 -16 15 -25 15 -15 18 -15 18 -3 0 8 -4 15 -10 15 -5 0 -7 6
-4 13 3 8 -3 20 -12 28 -12 9 -15 10 -10 2 4 -7 3 -13 -2 -13 -6 0 -10 36 -11
80 -1 58 2 80 11 80 10 0 10 2 1 8 -9 6 -18 58 -14 83 1 4 16 6 34 5 l32 -1 0
-162z"/>
<path d="M1845 372 c-8 -22 2 -27 20 -9 19 19 19 24 0 24 -8 0 -17 -7 -20 -15z"/>
<path d="M2218 425 c-3 -4 -2 -19 3 -34 10 -28 9 -332 -1 -361 -4 -13 13 -15
112 -18 65 -1 132 1 150 6 30 8 33 12 39 58 3 27 5 50 4 52 -2 2 -16 -11 -33
-28 -27 -27 -37 -30 -91 -30 l-61 0 0 55 c0 64 12 75 59 50 l31 -16 0 61 0 61
-29 -17 c-45 -27 -61 -14 -61 51 l0 55 45 0 c50 0 99 -20 108 -45 4 -8 10 -15
14 -15 13 0 2 88 -11 99 -15 12 -268 27 -278 16z m126 -36 c-37 -11 -64 -53
-45 -72 10 -9 11 -8 6 6 -4 10 -2 17 4 17 13 0 14 -11 2 -44 -7 -17 -7 -26 2
-30 7 -2 4 -5 -7 -5 -13 -1 -16 4 -12 15 4 10 -2 24 -15 35 -12 11 -18 19 -13
19 5 0 15 9 22 20 11 18 9 21 -13 30 -14 5 -25 11 -25 12 0 2 28 4 63 5 51 1
56 -1 31 -8z m131 -7 c-3 -3 -11 0 -18 7 -9 10 -8 11 6 5 10 -3 15 -9 12 -12z
m-208 -27 c0 -8 -4 -15 -9 -15 -4 0 -8 7 -8 15 0 8 4 15 8 15 5 0 9 -7 9 -15z
m11 -78 c-2 -16 5 -23 30 -29 17 -5 32 -13 32 -18 0 -5 12 -5 30 0 18 5 32 5
35 -1 6 -9 3 -11 -42 -12 -16 0 -32 -8 -38 -18 -9 -16 -14 -16 -35 -6 -14 7
-26 21 -27 32 -10 75 -9 83 4 78 8 -3 13 -15 11 -26z m7 -109 c12 6 26 1 20
-8 -3 -5 -1 -10 4 -10 6 0 11 -4 11 -10 0 -19 -19 -10 -26 13 -7 22 -7 21 -16
-5 -5 -16 -14 -28 -19 -28 -6 0 -7 6 -2 13 11 18 12 37 2 37 -5 0 -9 8 -9 18
1 15 2 15 16 -3 8 -11 17 -19 19 -17z m25 -62 c0 -8 -6 -16 -13 -19 -18 -7
-43 8 -29 17 6 3 13 0 15 -6 3 -8 6 -6 6 5 1 20 21 24 21 3z m-40 -33 c0 -5
-5 -15 -10 -23 -8 -12 -10 -11 -10 8 0 12 5 22 10 22 6 0 10 -3 10 -7z m55
-15 c17 -8 22 -14 14 -19 -7 -4 -19 -1 -27 8 -12 12 -16 12 -23 1 -5 -7 -9 -8
-9 -2 0 10 9 24 16 24 2 0 15 -5 29 -12z m160 -8 c-3 -5 -16 -10 -28 -10 -18
0 -19 2 -7 10 20 13 43 13 35 0z"/>
<path d="M2291 231 c-7 -5 -12 -14 -10 -20 3 -7 11 -3 21 9 18 21 13 26 -11
11z"/>
<path d="M2620 425 c0 -2 14 -24 30 -48 17 -25 30 -48 30 -52 0 -4 16 -43 36
-88 30 -69 35 -90 32 -137 -2 -30 -8 -63 -12 -72 -7 -16 -1 -18 69 -18 70 0
76 2 69 18 -4 9 -9 49 -11 87 -4 66 -2 75 40 160 24 50 56 104 70 121 l26 31
-52 -1 c-49 -1 -51 -2 -58 -34 -8 -38 -52 -142 -60 -142 -9 0 -47 109 -51 145
l-3 30 -77 2 c-43 2 -78 1 -78 -2z m86 -37 c-4 7 -1 12 8 12 16 0 13 -22 -7
-47 -6 -9 -6 -13 1 -13 5 0 17 15 26 33 8 17 16 28 17 22 0 -5 2 -18 4 -28 2
-11 1 -16 -2 -13 -9 9 -34 -15 -27 -26 4 -6 -3 -5 -14 1 -12 6 -19 17 -16 25
3 8 1 17 -5 21 -6 3 -11 11 -11 17 0 6 7 5 17 -3 11 -10 14 -10 9 -1z m220
-14 c-4 -9 -9 -15 -11 -12 -3 3 -3 13 1 22 4 9 9 15 11 12 3 -3 3 -13 -1 -22z
m-168 -51 c-2 -10 -10 -17 -16 -15 -7 1 -12 -2 -12 -8 0 -5 4 -10 8 -10 5 0 9
-7 9 -15 0 -8 -7 -15 -15 -15 -9 0 -12 3 -9 6 3 4 2 15 -3 24 -7 13 -6 20 6
24 8 3 12 10 9 16 -3 5 1 10 10 10 10 0 15 -6 13 -17z m36 -65 c5 -23 3 -26
-17 -21 -21 4 -21 4 -2 -8 38 -23 49 -57 13 -37 -44 25 -60 74 -20 62 13 -4
13 -3 -2 6 -15 10 -16 14 -5 21 11 7 11 9 1 9 -7 0 -10 5 -6 11 9 15 30 -8 38
-43z m45 -35 c1 9 6 17 11 17 14 0 12 -17 -3 -32 -8 -7 -12 -20 -10 -29 3 -9
0 -20 -6 -23 -7 -5 -8 -14 -2 -24 13 -26 11 -79 -4 -92 -9 -8 -15 -8 -20 0 -3
5 1 13 9 16 9 3 16 10 16 16 0 5 -4 7 -9 3 -5 -3 -12 -1 -16 5 -4 6 -11 7 -17
4 -6 -4 -5 -10 3 -16 11 -7 11 -11 1 -15 -6 -2 -9 -10 -6 -15 4 -7 2 -8 -4 -4
-10 6 -10 33 -2 56 2 3 2 9 1 14 -1 5 5 3 14 -4 12 -10 19 -10 27 -2 9 9 8 12
-6 12 -14 0 -16 3 -7 13 8 10 7 17 -1 25 -8 8 -8 15 1 26 7 8 12 23 11 33 -4
31 1 39 10 18 7 -17 9 -17 9 -2z m-47 -68 c3 -15 0 -26 -9 -29 -10 -4 -13 -1
-8 13 3 11 1 22 -5 26 -15 9 -12 25 4 19 8 -3 16 -16 18 -29z"/>
</g>
</svg>
